<svg xmlns="http://www.w3.org/2000/svg" version="1.1" xmlns:xlink="http://www.w3.org/1999/xlink" xmlns:svgjs="http://svgjs.com/svgjs" width="1920" height="1920"><svg xmlns="http://www.w3.org/2000/svg" version="1.1" xmlns:xlink="http://www.w3.org/1999/xlink" xmlns:svgjs="http://svgjs.com/svgjs" width="1920" height="1920" preserveAspectRatio="none" viewBox="0 0 1920 1920"><g mask="url(&quot;#SvgjsMask1093&quot;)" fill="none"><path d="M960 1881.93C1207.76 1884.22 1459.86 1810.04 1628.6 1628.6 1792.57 1452.32 1826.05 1200.59 1817.47 960 1809.24 729.57 1747.69 498.37 1582.56 337.44 1419.25 178.3 1187.15 144.35 960 124.29 701.5 101.45 406.39 39.59 216.86 216.86 24.98 396.34 50.23 697.78 66.49 960 81.45 1201.38 135.26 1442.75 303.59 1616.41 474.35 1792.61 714.63 1879.67 960 1881.93" fill="rgba(217, 4, 41, 1)"></path><path d="M960 1379.06C1072.62 1380.1 1187.21 1346.38 1263.91 1263.91 1338.44 1183.78 1353.66 1069.36 1349.76 960 1346.02 855.26 1318.04 750.17 1242.98 677.02 1168.75 604.68 1063.25 589.25 960 580.13 842.5 569.75 708.36 541.63 622.21 622.21 534.99 703.79 546.47 840.81 553.86 960 560.66 1069.72 585.12 1179.43 661.63 1258.37 739.25 1338.46 848.47 1378.03 960 1379.06" fill="rgba(239, 35, 60, 1)"></path></g><defs><mask id="SvgjsMask1000"><rect width="1920" height="1920" fill="#ffffff"></rect></mask></defs></svg><style>@media (prefers-color-scheme: light) { :root { filter: none; } }
@media (prefers-color-scheme: dark) { :root { filter: none; } }
</style></svg>