<?xml version="1.0" encoding="UTF-8" standalone="no"?>
<svg
   version="1.1"
   width="788.5907"
   height="813.78076"
   preserveAspectRatio="none"
   viewBox="0 0 788.5907 813.78076"
   id="svg15"
   sodipodi:docname="background.svg"
   xmlns:inkscape="http://www.inkscape.org/namespaces/inkscape"
   xmlns:sodipodi="http://sodipodi.sourceforge.net/DTD/sodipodi-0.dtd"
   xmlns="http://www.w3.org/2000/svg"
   xmlns:svg="http://www.w3.org/2000/svg">
  <sodipodi:namedview
     id="namedview17"
     pagecolor="#ffffff"
     bordercolor="#000000"
     borderopacity="0.25"
     inkscape:showpageshadow="2"
     inkscape:pageopacity="0.0"
     inkscape:pagecheckerboard="0"
     inkscape:deskcolor="#d1d1d1"
     showgrid="false" />
  <g
     mask="url(#SvgjsMask1025)"
     fill="none"
     id="g8"
     transform="translate(-930.39136,-190.1608)">
    <path
       d="m 440.26839,739.79879 c 69.76062,-10.07437 134.80013,-26.69432 200.44033,-52.37303 81.33959,-31.82056 182.26629,-42.01507 229.1722,-115.69354 47.4179,-74.48314 33.4941,-174.34743 9.5854,-259.34499 C 857.24582,233.39183 804.05701,167.56721 741.31621,114.6752 684.85841,67.079867 614.22744,44.736457 542.27635,28.127687 473.92669,12.350117 402.72786,-1.1245134 336.21593,21.164407 270.8635,43.064967 231.05567,103.80734 179.59976,149.66413 119.40151,203.31121 31.202757,236.11805 8.2712171,313.4224 -15.056363,392.06227 28.518447,473.41299 61.252637,548.62536 c 33.25038,76.3991 63.171043,165.09029 137.564773,202.61405 73.42841,37.03691 160.05555,0.31363 241.45098,-11.44062"
       fill="#cc0f26"
       id="path4"
       style="stroke-width:0.698493"
       inkscape:export-filename="path4.svg"
       inkscape:export-xdpi="96"
       inkscape:export-ydpi="96" />
    <path
       d="m 1307.2956,986.32776 c 74.0824,-2.3744 149.29,12.5525 217.178,-17.1975 74.2896,-32.555 147.5285,-82.2324 179.6618,-156.7053 31.9553,-74.0595 4.523,-157.50289 -9.8418,-236.87281 -13.8612,-76.58743 -28.967,-152.3904 -72.3101,-217.03666 -47.3391,-70.60613 -101.1641,-156.45856 -185.4602,-167.4295 -85.0929,-11.07479 -146.0795,80.27091 -224.9785,114.01063 -66.6052,28.48291 -149.5674,18.04633 -201.6255,68.41945 -53.40962,51.68073 -76.47093,129.24377 -79.39674,203.50655 -2.77516,70.43792 39.12963,131.08284 63.60874,197.18884 26.7541,72.2487 23.0638,165.9259 86.8519,209.1315 63.755,43.18314 149.3486,5.4513 226.3124,2.9848"
       fill="#f35669"
       id="path6"
       style="stroke-width:0.487554" />
  </g>
  <defs
     id="defs13">
    <mask
       id="SvgjsMask1025">
      <rect
         width="1920"
         height="1080"
         fill="#ffffff"
         id="rect10"
         x="0"
         y="0" />
    </mask>
  </defs>
</svg>
