<?xml version="1.0" encoding="UTF-8" standalone="no"?>
<svg
   version="1.1"
   width="899.76617"
   height="757.95935"
   preserveAspectRatio="none"
   viewBox="0 0 899.76617 757.95935"
   id="svg15"
   sodipodi:docname="background.svg"
   xmlns:inkscape="http://www.inkscape.org/namespaces/inkscape"
   xmlns:sodipodi="http://sodipodi.sourceforge.net/DTD/sodipodi-0.dtd"
   xmlns="http://www.w3.org/2000/svg"
   xmlns:svg="http://www.w3.org/2000/svg">
  <sodipodi:namedview
     id="namedview17"
     pagecolor="#ffffff"
     bordercolor="#000000"
     borderopacity="0.25"
     inkscape:showpageshadow="2"
     inkscape:pageopacity="0.0"
     inkscape:pagecheckerboard="0"
     inkscape:deskcolor="#d1d1d1"
     showgrid="false" />
  <g
     mask="url(#SvgjsMask1025)"
     fill="none"
     id="g8"
     transform="translate(-174.39326,-132.15872)">
    <path
       d="m 612.98217,862.54586 c 69.76062,-10.07437 134.80013,-26.69432 200.44033,-52.37303 81.33959,-31.82056 182.26629,-42.01507 229.1722,-115.69354 47.4179,-74.48314 33.4941,-174.34743 9.5854,-259.34499 -22.2205,-78.9954 -75.40931,-144.82002 -138.15011,-197.71203 -56.4578,-47.59533 -127.08877,-69.93874 -199.03986,-86.54751 -68.34966,-15.77757 -139.54849,-29.2522 -206.06042,-6.96328 -65.35243,21.90056 -105.16026,82.64293 -156.61617,128.49972 -60.19825,53.64708 -148.397,86.45392 -171.32854,163.75827 -23.32758,78.63987 20.24723,159.99059 52.98142,235.20296 33.25038,76.3991 63.17104,165.09029 137.56477,202.61405 73.42841,37.03691 160.05555,0.31363 241.45098,-11.44062"
       fill="#cc0f26"
       id="path4"
       style="stroke-width:0.698493" />
    <path
       d="m 1920,1808.398 c 151.947,-4.87 306.202,25.746 445.444,-35.273 152.372,-66.772 302.589,-168.663 368.496,-321.411 65.542,-151.9 9.277,-323.047 -20.186,-485.839 -28.43,-157.085 -59.413,-312.561 -148.312,-445.154 -97.095,-144.817 -207.493,-320.905 -380.389,-343.407 -174.53,-22.715 -299.617,164.64 -461.443,233.842 -136.611,58.42 -306.771,37.014 -413.545,140.332 -109.546,106 -156.846,265.086 -162.847,417.403 -5.692,144.472 80.257,268.858 130.465,404.445 54.874,148.186 47.305,340.323 178.138,428.94 130.765,88.571 306.322,11.181 464.179,6.122"
       fill="#f35669"
       id="path6" />
  </g>
  <defs
     id="defs13">
    <mask
       id="SvgjsMask1025">
      <rect
         width="1920"
         height="1080"
         fill="#ffffff"
         id="rect10"
         x="0"
         y="0" />
    </mask>
  </defs>
</svg>
